<svg width="40" height="39" viewBox="0 0 40 39" fill="none" xmlns="http://www.w3.org/2000/svg">
<g id="Logo">
<path id="Vector" d="M19.9062 10.3593C19.9062 15.4076 15.8139 19.5 10.7656 19.5H1.625V10.3593C1.625 5.3111 5.71739 1.21871 10.7656 1.21871C15.8139 1.21871 19.9062 5.3111 19.9062 10.3593Z" fill="#749B3F"/>
<path id="Vector_2" d="M19.906 28.6407C19.906 23.5925 23.9984 19.5001 29.0466 19.5001H38.1873V28.6407C38.1873 33.6889 34.0949 37.7813 29.0466 37.7813C23.9984 37.7813 19.906 33.6889 19.906 28.6407Z" fill="#749B3F"/>
<path id="Vector_3" d="M1.625 28.6407C1.625 33.6889 5.71739 37.7813 10.7656 37.7813H19.9062V28.6407C19.9062 23.5925 15.8139 19.5001 10.7656 19.5001C5.71739 19.5001 1.625 23.5925 1.625 28.6407Z" fill="#749B3F"/>
<path id="Vector_4" d="M38.1873 10.3593C38.1873 5.3111 34.0949 1.21871 29.0466 1.21871H19.906V10.3593C19.906 15.4076 23.9984 19.5 29.0466 19.5C34.0949 19.5 38.1873 15.4076 38.1873 10.3593Z" fill="#749B3F"/>
</g>
</svg>
